<?xml version="1.0" encoding="UTF-8"?>
<svg width="1920" height="1080" version="1.1" viewBox="0 0 1920 1080" xml:space="preserve" xmlns="http://www.w3.org/2000/svg" xmlns:cc="http://creativecommons.org/ns#" xmlns:dc="http://purl.org/dc/elements/1.1/" xmlns:rdf="http://www.w3.org/1999/02/22-rdf-syntax-ns#"><metadata><rdf:RDF><cc:Work rdf:about=""><dc:format>image/svg+xml</dc:format><dc:type rdf:resource="http://purl.org/dc/dcmitype/StillImage"/><dc:title/></cc:Work></rdf:RDF></metadata>
<g transform="translate(-20 20)"><g transform="matrix(1.7249 0 0 1.9019 477.74 -100.89)" fill="#fff"><ellipse cx="289.44" cy="373.78" rx="173.55" ry="101.83" fill="#fff"/>
</g><g transform="matrix(1.1992 0 0 1.1992 633.24 173.24)" fill="#4a90e2">
	<g fill="#4a90e2">
		<path d="m533.32 160.38c0.532-26.518-5.294-53.33-10.024-79.731-1.628-9.088-4.927-17.87-8.177-26.487-2.448-6.487-9.676-10.618-16.334-9.198-4.309 0.918-8.183 1.812-11.94 3.048-39.327 12.938-75.741 31.86-110.72 53.844-4.7 2.95-11.536 4.015-17.21 3.599-13.574-0.992-27.001-4.37-40.569-5.013-33.58-1.591-67.093-0.569-100.37 5.251-4.626 0.808-10.716 0.012-14.559-2.472-38.146-24.683-77.834-45.809-122.48-57.67-6.702-1.781-13.599-0.838-15.294 1.824-1.035 1.628-1.971 3.317-2.485 5.128-4.823 16.946-10.539 33.807-13.342 51.114-3.341 20.655-6.554 41.935-4.969 62.565 0.998 12.968-2.583 20.937-9.669 30.037-23.771 30.539-34.475 65.643-35.13 104.13-0.563 32.919 3.794 65 13.819 96.47 15.355 48.219 45.006 84.406 89.652 107.95 36.708 19.357 76.708 26.818 117.64 28.256 36.892 1.292 73.856 0.196 110.79 0.404 37.021 0.208 73.532-3.091 108.95-14.633 35.447-11.549 66.121-30.184 89.922-59.486 34.376-42.326 45.079-92.186 47.276-144.96 1.684-40.361-6.542-78.329-30.178-111.35-9.584-13.396-14.957-24.902-14.596-42.62zm-71.273 309.26c-15.876 13.728-35.288 20.227-55.16 24.976-38.99 9.315-78.69 11.635-118.52 9.896-39.37 1.707-78.287-0.747-116.59-9.762-28.256-6.646-54.052-17.821-72.032-42.075-28.611-38.599-35.924-112.06 11.353-152.15 12.056-10.221 25.502-16.708 41.39-17.717 17.534-1.12 35.074-3.305 52.595-3.097 44.199 0.526 88.378 2.724 132.57 3.054 20.184 0.146 40.509-4.56 60.545-3.348 18.207 1.102 37.351 4.455 53.875 11.781 27.546 12.215 42.374 36.983 46.854 65.992 6.67 43.133-2.131 82.393-36.88 112.45z"/>
		<ellipse cx="390.03" cy="385.55" rx="42.124" ry="56.298"/>
		<ellipse cx="189.03" cy="385.55" rx="42.13" ry="56.298"/>
	</g>
</g></g>















</svg>
