<svg enable-background="new 0 0 64 64" version="1.1" viewBox="0 0 64 64" xml:space="preserve" xmlns="http://www.w3.org/2000/svg"><circle cx="32" cy="32" r="32" fill="#e0995e"/><g opacity=".2"><path d="m32 22.923h-17.5c-1.38 0-2.5 1.063-2.5 2.422v22.193c0 1.359 1.12 2.462 2.5 2.462h35c1.38 0 2.5-1.103 2.5-2.462v-24.615z" fill="#231f20"/></g><path d="m32 20.923h-17.5c-1.38 0-2.5 1.063-2.5 2.422v22.193c0 1.359 1.12 2.462 2.5 2.462h35c1.38 0 2.5-1.103 2.5-2.462v-24.615z" fill="#fff"/><path d="m52 18.462c0-1.359-1.12-2.462-2.5-2.462h-12.5c-1.38 0-2.5 1.103-2.5 2.462 0 0-0.325 2.257-2.5 2.461h20z" fill="#e0e0d1"/><g transform="matrix(.43546 0 0 .43546 19.6 3.5444)"><path d="m39.955 86.978s-16-3.125-16-28v33" fill="none" stroke="#4f5d73" stroke-linecap="round" stroke-miterlimit="10" stroke-width="6"/><path d="m15.394 60.978c-1.471 0-1.883-1.088-0.914-2.418l7.713-10.585c0.969-1.33 2.555-1.33 3.524 0l7.713 10.585c0.969 1.33 0.558 2.418-0.914 2.418z" fill="#4f5d73"/></g></svg>
