<?xml version="1.0" encoding="UTF-8" standalone="no"?>
<svg
   xmlns:dc="http://purl.org/dc/elements/1.1/"
   xmlns:cc="http://creativecommons.org/ns#"
   xmlns:rdf="http://www.w3.org/1999/02/22-rdf-syntax-ns#"
   xmlns:svg="http://www.w3.org/2000/svg"
   xmlns="http://www.w3.org/2000/svg"
   xmlns:sodipodi="http://sodipodi.sourceforge.net/DTD/sodipodi-0.dtd"
   xmlns:inkscape="http://www.inkscape.org/namespaces/inkscape"
   enable-background="new 0 0 64 64"
   height="40"
   version="1.1"
   viewBox="0 0 40 40"
   width="40"
   xml:space="preserve"
   id="svg24"
   sodipodi:docname="iconfinder_folder_1055055.svg"
   inkscape:version="0.92.4 (5da689c313, 2019-01-14)"
   inkscape:export-filename="C:\Users\marco\Downloads\mergerfs.png"
   inkscape:export-xdpi="600"
   inkscape:export-ydpi="600"><metadata
     id="metadata30"><rdf:RDF><cc:Work
         rdf:about=""><dc:format>image/svg+xml</dc:format><dc:type
           rdf:resource="http://purl.org/dc/dcmitype/StillImage" /><dc:title></dc:title></cc:Work></rdf:RDF></metadata><defs
     id="defs28" /><sodipodi:namedview
     pagecolor="#ffffff"
     bordercolor="#666666"
     borderopacity="1"
     objecttolerance="10"
     gridtolerance="10"
     guidetolerance="10"
     inkscape:pageopacity="0"
     inkscape:pageshadow="2"
     inkscape:window-width="3840"
     inkscape:window-height="2081"
     id="namedview26"
     showgrid="false"
     inkscape:zoom="10.429825"
     inkscape:cx="25.962027"
     inkscape:cy="11.6363"
     inkscape:window-x="-9"
     inkscape:window-y="-9"
     inkscape:window-maximized="1"
     inkscape:current-layer="svg24"
     fit-margin-top="0"
     fit-margin-left="0"
     fit-margin-right="0"
     fit-margin-bottom="0" /><g
     id="Layer_2"
     transform="translate(-12,-8)" /><g
     id="g870"
     transform="translate(0,-4)"><g
       transform="translate(-12,-8)"
       style="fill:#ffd42a;fill-opacity:1"
       id="g16"><g
         style="fill:#ffd42a;fill-opacity:1"
         id="g14"><path
           d="M 32,20.923 H 31.583 14.5 c -1.38,0 -2.5,1.063 -2.5,2.422 V 45.538 C 12,46.897 13.12,48 14.5,48 h 35 C 50.88,48 52,46.897 52,45.538 V 25.846 23.345 20.923 Z"
           id="path12"
           inkscape:connector-curvature="0"
           style="fill:#ffd42a;fill-opacity:1" /></g></g><g
       style="fill:#d4aa00"
       transform="translate(-12,-8)"
       id="g20"><path
         d="M 52,18.462 C 52,17.103 50.88,16 49.5,16 H 37 c -1.38,0 -2.5,1.103 -2.5,2.462 0,0 -0.325,2.257 -2.5,2.461 h 20 z"
         id="path18"
         inkscape:connector-curvature="0"
         style="fill:#d4aa00" /></g><g
       transform="matrix(0.43545718,0,0,0.43545718,7.5999086,-4.455593)"
       id="g850"><path
         inkscape:connector-curvature="0"
         style="fill:none;stroke:#4f5d73;stroke-width:6;stroke-linecap:round;stroke-miterlimit:10"
         d="m 39.954944,86.978045 c 0,0 -16,-3.125 -16,-28 v 33"
         stroke-miterlimit="10"
         id="path8" /><path
         inkscape:connector-curvature="0"
         style="fill:#4f5d73"
         d="m 15.393944,60.978045 c -1.471,0 -1.883,-1.088 -0.914,-2.418 l 7.713,-10.585 c 0.969,-1.33 2.555,-1.33 3.524,0 l 7.713,10.585 c 0.969,1.33 0.558,2.418 -0.914,2.418 z"
         id="path14" /></g></g></svg>